<svg width="50" height="50" viewBox="0 0 50 50" fill="none" xmlns="http://www.w3.org/2000/svg">
<g id="bi:brush" clip-path="url(#clip0_347_1186)">
<path id="Vector" d="M49.4535 0.375197C49.71 0.594142 49.8888 0.890194 49.9631 1.21913C50.0375 1.54806 50.0034 1.89222 49.866 2.2002C45.0848 12.9189 35.0442 27.7314 27.6942 35.4502C25.6315 37.6065 23.0915 39.2485 20.2785 40.2439C20.2223 40.9533 20.091 41.9252 19.7785 42.9564C19.1504 45.0158 17.6942 47.5783 14.441 48.3939C11.2907 49.1455 8.0254 49.2856 4.82228 48.8064C4.22746 48.7084 3.64051 48.5674 3.06603 48.3846C2.5361 48.2219 2.04192 47.9599 1.60978 47.6127C1.3239 47.3721 1.10443 47.0622 0.972284 46.7127C0.805816 46.2654 0.810267 45.7725 0.984784 45.3283C1.28166 44.5627 1.97228 44.1408 2.42541 43.9158C3.65666 43.3002 4.37853 42.5002 5.13478 41.3346C5.43166 40.8846 5.70978 40.4064 6.03166 39.8596L6.39728 39.2408C6.86916 38.4439 7.41603 37.5533 8.10353 36.5908C9.75353 34.2814 11.8567 33.7002 13.5598 33.7908C13.9556 33.8158 14.3181 33.8658 14.6473 33.9408C14.841 33.4033 15.091 32.7533 15.391 32.0408C16.2067 30.1064 17.4473 27.6064 19.1004 25.5752C25.9004 17.2314 38.4129 6.18145 47.591 0.250197C47.8736 0.0678202 48.2074 -0.0185235 48.543 0.00399657C48.8785 0.0265166 49.1979 0.156699 49.4535 0.375197ZM14.7035 37.2252C14.2895 37.0429 13.8459 36.937 13.3942 36.9127C12.6254 36.8721 11.6035 37.0689 10.6473 38.4096C10.0317 39.2689 9.53791 40.0721 9.08478 40.8377L8.75666 41.3908C8.42541 41.9564 8.09103 42.5221 7.75666 43.0408C7.12329 44.0659 6.32017 44.9757 5.38166 45.7314C7.53791 46.0814 10.8067 46.0783 13.6848 45.3564C15.4317 44.9221 16.3192 43.5783 16.7879 42.0439C17.0181 41.2826 17.1504 40.495 17.1817 39.7002L14.7035 37.2252ZM19.2035 37.3064C19.5785 37.1814 20.0692 36.9939 20.6348 36.7346C22.4338 35.8973 24.0606 34.7315 25.4317 33.2971C31.3692 27.0596 39.2192 15.8908 44.3442 6.3252C36.2504 12.3471 26.9504 20.8877 21.5254 27.5502C20.1442 29.2471 19.041 31.4346 18.2692 33.2564C17.891 34.1564 17.6004 34.9439 17.4098 35.5064L19.2035 37.3064Z" fill="#C5C5C5"/>
</g>
<defs>
<clipPath id="clip0_347_1186">
<rect width="50" height="50" fill="white"/>
</clipPath>
</defs>
</svg>
