<svg width="50" height="50" viewBox="0 0 50 50" fill="none" xmlns="http://www.w3.org/2000/svg">
<g id="hugeicons:lasso-tool-02">
<g id="Group">
<path id="Vector" d="M11.4587 32.2919L5.43991 11.646C4.26283 7.62519 3.67533 5.61477 4.67949 4.61685C5.68158 3.61685 7.51908 4.3856 11.1899 5.9231L24.3587 11.4356C27.467 12.7356 28.8253 12.6314 31.7337 10.9294L39.1607 6.57519C42.3107 4.72935 43.8857 3.80644 44.9795 4.56894C46.0753 5.33352 45.917 7.24394 45.6003 11.0689L44.4441 25.0231C44.0066 30.3356 43.0482 31.8752 37.8503 33.2439L20.8337 37.5002" stroke="#C5C5C5" stroke-width="4" stroke-linecap="round" stroke-linejoin="round"/>
<path id="Vector_2" d="M20.8066 35.4167C20.8066 37.7187 18.4816 39.5833 15.6128 39.5833C12.742 39.5833 10.417 37.7187 10.417 35.4167C10.417 33.1146 12.742 31.25 15.6128 31.25C18.4816 31.25 20.8066 33.1146 20.8066 35.4167ZM20.8066 35.4167C20.9357 37.025 20.8482 42.7083 14.5899 45.8333" stroke="#C5C5C5" stroke-width="4" stroke-linecap="round" stroke-linejoin="round"/>
</g>
</g>
</svg>
