<svg width="50" height="50" viewBox="0 0 50 50" fill="none" xmlns="http://www.w3.org/2000/svg">
<g id="mdi:selection">
<path id="Vector" d="M4.16699 8.33317C4.16699 7.2281 4.60598 6.16829 5.38738 5.38689C6.16878 4.60549 7.22859 4.1665 8.33366 4.1665H14.5837V8.33317H8.33366V14.5832H4.16699V8.33317ZM45.8337 8.33317V14.5832H41.667V8.33317H35.417V4.1665H41.667C42.7721 4.1665 43.8319 4.60549 44.6133 5.38689C45.3947 6.16829 45.8337 7.2281 45.8337 8.33317ZM41.667 41.6665V35.4165H45.8337V41.6665C45.8337 42.7716 45.3947 43.8314 44.6133 44.6128C43.8319 45.3942 42.7721 45.8332 41.667 45.8332H35.417V41.6665H41.667ZM4.16699 41.6665V35.4165H8.33366V41.6665H14.5837V45.8332H8.33366C7.22859 45.8332 6.16878 45.3942 5.38738 44.6128C4.60598 43.8314 4.16699 42.7716 4.16699 41.6665ZM20.8337 4.1665H29.167V8.33317H20.8337V4.1665ZM20.8337 41.6665H29.167V45.8332H20.8337V41.6665ZM41.667 20.8332H45.8337V29.1665H41.667V20.8332ZM4.16699 20.8332H8.33366V29.1665H4.16699V20.8332Z" fill="#C5C5C5"/>
</g>
</svg>
